# xmcd CD database file
#
# Track frame offsets:
#	150
#	22957
#	44162
#	62563
#	80860
#	105676
#	122743
#	144704
#	162601
#	191346
#	211506
#
# Disc length: 3126 seconds
#
# Revision: 2
# Processed by: cddbd v1.5.2PL0 Copyright (c) Steve Scherf et al.
# Submitted via: CDex 1.70beta2
#
DISCID=9c0c340b
DTITLE=Tommy Castro Band - Guilty Of Love
DYEAR=2001
DGENRE=Blues
TTITLE0=Guilty Of Love
TTITLE1=Stay With Me Tonight
TTITLE2=Somebody To Love You
TTITLE3=Blinded In The Face Of Love
TTITLE4=Whole Lotta Soul
TTITLE5=Shakin The Hard Times Loose
TTITLE6=I Aint Gonna Make That Call
TTITLE7=Naugahyde
TTITLE8=Ain't No Fun To Me
TTITLE9=If You Ain't Lovin You Ain't Livin
TTITLE10=Dirt Road Blues
EXTD=YEAR: 2001
EXTT0=
EXTT1=
EXTT2=
EXTT3=
EXTT4=
EXTT5=
EXTT6=
EXTT7=
EXTT8=
EXTT9=
EXTT10=
PLAYORDER=
